%TF.GenerationSoftware,KiCad,Pcbnew,(6.0.4)*%
%TF.CreationDate,2023-01-02T17:26:25-06:00*%
%TF.ProjectId,FordOilPressure,466f7264-4f69-46c5-9072-657373757265,rev?*%
%TF.SameCoordinates,Original*%
%TF.FileFunction,Legend,Top*%
%TF.FilePolarity,Positive*%
%FSLAX46Y46*%
G04 Gerber Fmt 4.6, Leading zero omitted, Abs format (unit mm)*
G04 Created by KiCad (PCBNEW (6.0.4)) date 2023-01-02 17:26:25*
%MOMM*%
%LPD*%
G01*
G04 APERTURE LIST*
%ADD10C,0.150000*%
%ADD11C,0.120000*%
G04 APERTURE END LIST*
D10*
%TO.C,Q1*%
X48925462Y-28545551D02*
X48830224Y-28497932D01*
X48734986Y-28402693D01*
X48592129Y-28259836D01*
X48496891Y-28212217D01*
X48401653Y-28212217D01*
X48449272Y-28450312D02*
X48354034Y-28402693D01*
X48258796Y-28307455D01*
X48211177Y-28116979D01*
X48211177Y-27783646D01*
X48258796Y-27593170D01*
X48354034Y-27497932D01*
X48449272Y-27450312D01*
X48639748Y-27450312D01*
X48734986Y-27497932D01*
X48830224Y-27593170D01*
X48877843Y-27783646D01*
X48877843Y-28116979D01*
X48830224Y-28307455D01*
X48734986Y-28402693D01*
X48639748Y-28450312D01*
X48449272Y-28450312D01*
X49830224Y-28450312D02*
X49258796Y-28450312D01*
X49544510Y-28450312D02*
X49544510Y-27450312D01*
X49449272Y-27593170D01*
X49354034Y-27688408D01*
X49258796Y-27736027D01*
%TO.C,R3*%
X25755833Y-27122380D02*
X25422500Y-26646190D01*
X25184404Y-27122380D02*
X25184404Y-26122380D01*
X25565357Y-26122380D01*
X25660595Y-26170000D01*
X25708214Y-26217619D01*
X25755833Y-26312857D01*
X25755833Y-26455714D01*
X25708214Y-26550952D01*
X25660595Y-26598571D01*
X25565357Y-26646190D01*
X25184404Y-26646190D01*
X26089166Y-26122380D02*
X26708214Y-26122380D01*
X26374880Y-26503333D01*
X26517738Y-26503333D01*
X26612976Y-26550952D01*
X26660595Y-26598571D01*
X26708214Y-26693809D01*
X26708214Y-26931904D01*
X26660595Y-27027142D01*
X26612976Y-27074761D01*
X26517738Y-27122380D01*
X26232023Y-27122380D01*
X26136785Y-27074761D01*
X26089166Y-27027142D01*
%TO.C,D2*%
X22042380Y-39138095D02*
X21042380Y-39138095D01*
X21042380Y-38900000D01*
X21090000Y-38757142D01*
X21185238Y-38661904D01*
X21280476Y-38614285D01*
X21470952Y-38566666D01*
X21613809Y-38566666D01*
X21804285Y-38614285D01*
X21899523Y-38661904D01*
X21994761Y-38757142D01*
X22042380Y-38900000D01*
X22042380Y-39138095D01*
X21137619Y-38185714D02*
X21090000Y-38138095D01*
X21042380Y-38042857D01*
X21042380Y-37804761D01*
X21090000Y-37709523D01*
X21137619Y-37661904D01*
X21232857Y-37614285D01*
X21328095Y-37614285D01*
X21470952Y-37661904D01*
X22042380Y-38233333D01*
X22042380Y-37614285D01*
%TO.C,C1*%
X29657002Y-14277640D02*
X29609383Y-14325259D01*
X29466526Y-14372878D01*
X29371288Y-14372878D01*
X29228430Y-14325259D01*
X29133192Y-14230021D01*
X29085573Y-14134783D01*
X29037954Y-13944307D01*
X29037954Y-13801450D01*
X29085573Y-13610974D01*
X29133192Y-13515736D01*
X29228430Y-13420498D01*
X29371288Y-13372878D01*
X29466526Y-13372878D01*
X29609383Y-13420498D01*
X29657002Y-13468117D01*
X30609383Y-14372878D02*
X30037954Y-14372878D01*
X30323669Y-14372878D02*
X30323669Y-13372878D01*
X30228430Y-13515736D01*
X30133192Y-13610974D01*
X30037954Y-13658593D01*
%TO.C,U2*%
X45278095Y-10817380D02*
X45278095Y-11626904D01*
X45325714Y-11722142D01*
X45373333Y-11769761D01*
X45468571Y-11817380D01*
X45659047Y-11817380D01*
X45754285Y-11769761D01*
X45801904Y-11722142D01*
X45849523Y-11626904D01*
X45849523Y-10817380D01*
X46278095Y-10912619D02*
X46325714Y-10865000D01*
X46420952Y-10817380D01*
X46659047Y-10817380D01*
X46754285Y-10865000D01*
X46801904Y-10912619D01*
X46849523Y-11007857D01*
X46849523Y-11103095D01*
X46801904Y-11245952D01*
X46230476Y-11817380D01*
X46849523Y-11817380D01*
%TO.C,U1*%
X28448095Y-31332380D02*
X28448095Y-32141904D01*
X28495714Y-32237142D01*
X28543333Y-32284761D01*
X28638571Y-32332380D01*
X28829047Y-32332380D01*
X28924285Y-32284761D01*
X28971904Y-32237142D01*
X29019523Y-32141904D01*
X29019523Y-31332380D01*
X30019523Y-32332380D02*
X29448095Y-32332380D01*
X29733809Y-32332380D02*
X29733809Y-31332380D01*
X29638571Y-31475238D01*
X29543333Y-31570476D01*
X29448095Y-31618095D01*
%TO.C,J2*%
X18711666Y-25077380D02*
X18711666Y-25791666D01*
X18664047Y-25934523D01*
X18568809Y-26029761D01*
X18425952Y-26077380D01*
X18330714Y-26077380D01*
X19140238Y-25172619D02*
X19187857Y-25125000D01*
X19283095Y-25077380D01*
X19521190Y-25077380D01*
X19616428Y-25125000D01*
X19664047Y-25172619D01*
X19711666Y-25267857D01*
X19711666Y-25363095D01*
X19664047Y-25505952D01*
X19092619Y-26077380D01*
X19711666Y-26077380D01*
%TO.C,J1*%
X18711666Y-12377380D02*
X18711666Y-13091666D01*
X18664047Y-13234523D01*
X18568809Y-13329761D01*
X18425952Y-13377380D01*
X18330714Y-13377380D01*
X19711666Y-13377380D02*
X19140238Y-13377380D01*
X19425952Y-13377380D02*
X19425952Y-12377380D01*
X19330714Y-12520238D01*
X19235476Y-12615476D01*
X19140238Y-12663095D01*
%TO.C,D1*%
X24303297Y-13790341D02*
X24303297Y-12790341D01*
X24541393Y-12790341D01*
X24684250Y-12837961D01*
X24779488Y-12933199D01*
X24827107Y-13028437D01*
X24874726Y-13218913D01*
X24874726Y-13361770D01*
X24827107Y-13552246D01*
X24779488Y-13647484D01*
X24684250Y-13742722D01*
X24541393Y-13790341D01*
X24303297Y-13790341D01*
X25827107Y-13790341D02*
X25255678Y-13790341D01*
X25541393Y-13790341D02*
X25541393Y-12790341D01*
X25446154Y-12933199D01*
X25350916Y-13028437D01*
X25255678Y-13076056D01*
%TO.C,C2*%
X35753916Y-32653330D02*
X35706297Y-32700949D01*
X35563440Y-32748568D01*
X35468202Y-32748568D01*
X35325344Y-32700949D01*
X35230106Y-32605711D01*
X35182487Y-32510473D01*
X35134868Y-32319997D01*
X35134868Y-32177140D01*
X35182487Y-31986664D01*
X35230106Y-31891426D01*
X35325344Y-31796188D01*
X35468202Y-31748568D01*
X35563440Y-31748568D01*
X35706297Y-31796188D01*
X35753916Y-31843807D01*
X36134868Y-31843807D02*
X36182487Y-31796188D01*
X36277725Y-31748568D01*
X36515821Y-31748568D01*
X36611059Y-31796188D01*
X36658678Y-31843807D01*
X36706297Y-31939045D01*
X36706297Y-32034283D01*
X36658678Y-32177140D01*
X36087249Y-32748568D01*
X36706297Y-32748568D01*
%TO.C,R2*%
X34309111Y-27006157D02*
X33975778Y-26529967D01*
X33737682Y-27006157D02*
X33737682Y-26006157D01*
X34118635Y-26006157D01*
X34213873Y-26053777D01*
X34261492Y-26101396D01*
X34309111Y-26196634D01*
X34309111Y-26339491D01*
X34261492Y-26434729D01*
X34213873Y-26482348D01*
X34118635Y-26529967D01*
X33737682Y-26529967D01*
X34690063Y-26101396D02*
X34737682Y-26053777D01*
X34832920Y-26006157D01*
X35071016Y-26006157D01*
X35166254Y-26053777D01*
X35213873Y-26101396D01*
X35261492Y-26196634D01*
X35261492Y-26291872D01*
X35213873Y-26434729D01*
X34642444Y-27006157D01*
X35261492Y-27006157D01*
%TO.C,R1*%
X39822380Y-35726666D02*
X39346190Y-36060000D01*
X39822380Y-36298095D02*
X38822380Y-36298095D01*
X38822380Y-35917142D01*
X38870000Y-35821904D01*
X38917619Y-35774285D01*
X39012857Y-35726666D01*
X39155714Y-35726666D01*
X39250952Y-35774285D01*
X39298571Y-35821904D01*
X39346190Y-35917142D01*
X39346190Y-36298095D01*
X39822380Y-34774285D02*
X39822380Y-35345714D01*
X39822380Y-35060000D02*
X38822380Y-35060000D01*
X38965238Y-35155238D01*
X39060476Y-35250476D01*
X39108095Y-35345714D01*
%TO.C,J3*%
X25066666Y-42632380D02*
X25066666Y-43346666D01*
X25019047Y-43489523D01*
X24923809Y-43584761D01*
X24780952Y-43632380D01*
X24685714Y-43632380D01*
X25447619Y-42632380D02*
X26066666Y-42632380D01*
X25733333Y-43013333D01*
X25876190Y-43013333D01*
X25971428Y-43060952D01*
X26019047Y-43108571D01*
X26066666Y-43203809D01*
X26066666Y-43441904D01*
X26019047Y-43537142D01*
X25971428Y-43584761D01*
X25876190Y-43632380D01*
X25590476Y-43632380D01*
X25495238Y-43584761D01*
X25447619Y-43537142D01*
%TO.C,C3*%
X33363333Y-15597142D02*
X33315714Y-15644761D01*
X33172857Y-15692380D01*
X33077619Y-15692380D01*
X32934761Y-15644761D01*
X32839523Y-15549523D01*
X32791904Y-15454285D01*
X32744285Y-15263809D01*
X32744285Y-15120952D01*
X32791904Y-14930476D01*
X32839523Y-14835238D01*
X32934761Y-14740000D01*
X33077619Y-14692380D01*
X33172857Y-14692380D01*
X33315714Y-14740000D01*
X33363333Y-14787619D01*
X33696666Y-14692380D02*
X34315714Y-14692380D01*
X33982380Y-15073333D01*
X34125238Y-15073333D01*
X34220476Y-15120952D01*
X34268095Y-15168571D01*
X34315714Y-15263809D01*
X34315714Y-15501904D01*
X34268095Y-15597142D01*
X34220476Y-15644761D01*
X34125238Y-15692380D01*
X33839523Y-15692380D01*
X33744285Y-15644761D01*
X33696666Y-15597142D01*
D11*
%TO.C,Q1*%
X46070701Y-29447932D02*
X46070701Y-31257932D01*
X47570701Y-29447932D02*
X46070701Y-29447932D01*
X46070701Y-39847932D02*
X46070701Y-38037932D01*
X46070701Y-31257932D02*
X40945701Y-31257932D01*
X47570701Y-39847932D02*
X46070701Y-39847932D01*
X46070701Y-38037932D02*
X44970701Y-38037932D01*
%TO.C,R3*%
X25922500Y-28955276D02*
X25922500Y-29464724D01*
X24877500Y-28955276D02*
X24877500Y-29464724D01*
%TO.C,D2*%
X20590000Y-40350000D02*
X20590000Y-36450000D01*
X20590000Y-40350000D02*
X22590000Y-40350000D01*
X22590000Y-40350000D02*
X22590000Y-36450000D01*
%TO.C,C1*%
X30332425Y-16095836D02*
X30332425Y-16388370D01*
X29312425Y-16095836D02*
X29312425Y-16388370D01*
%TO.C,U2*%
X43090000Y-23215000D02*
X43090000Y-21405000D01*
X44590000Y-23215000D02*
X43090000Y-23215000D01*
X43090000Y-21405000D02*
X41990000Y-21405000D01*
X44590000Y-12815000D02*
X43090000Y-12815000D01*
X43090000Y-14625000D02*
X37965000Y-14625000D01*
X43090000Y-12815000D02*
X43090000Y-14625000D01*
D10*
%TO.C,U1*%
X26460000Y-32805000D02*
X26460000Y-33010000D01*
X26460000Y-38315000D02*
X26460000Y-38015000D01*
X31960000Y-38315000D02*
X31960000Y-38015000D01*
X26460000Y-38315000D02*
X31960000Y-38315000D01*
X31960000Y-32805000D02*
X31960000Y-33105000D01*
X26460000Y-33010000D02*
X24710000Y-33010000D01*
X26460000Y-32805000D02*
X31960000Y-32805000D01*
D11*
%TO.C,J2*%
X19045000Y-29225000D02*
X19045000Y-26625000D01*
X16445000Y-34365000D02*
X21645000Y-34365000D01*
X21645000Y-26625000D02*
X21645000Y-34365000D01*
X16445000Y-26625000D02*
X17775000Y-26625000D01*
X16445000Y-29225000D02*
X16445000Y-34365000D01*
X16445000Y-29225000D02*
X19045000Y-29225000D01*
X16445000Y-27955000D02*
X16445000Y-26625000D01*
X19045000Y-26625000D02*
X21645000Y-26625000D01*
%TO.C,J1*%
X19045000Y-16525000D02*
X19045000Y-13925000D01*
X16445000Y-21665000D02*
X21645000Y-21665000D01*
X21645000Y-13925000D02*
X21645000Y-21665000D01*
X16445000Y-13925000D02*
X17775000Y-13925000D01*
X16445000Y-16525000D02*
X16445000Y-21665000D01*
X16445000Y-16525000D02*
X19045000Y-16525000D01*
X16445000Y-15255000D02*
X16445000Y-13925000D01*
X19045000Y-13925000D02*
X21645000Y-13925000D01*
%TO.C,D1*%
X27003638Y-16239999D02*
X27003638Y-14239999D01*
X27003638Y-14239999D02*
X23153638Y-14239999D01*
X27003638Y-16239999D02*
X23153638Y-16239999D01*
%TO.C,C2*%
X35913201Y-33175044D02*
X36205735Y-33175044D01*
X35913201Y-34195044D02*
X36205735Y-34195044D01*
%TO.C,R2*%
X34812500Y-29107224D02*
X34812500Y-28597776D01*
X33767500Y-29107224D02*
X33767500Y-28597776D01*
%TO.C,R1*%
X39892500Y-32765276D02*
X39892500Y-33274724D01*
X38847500Y-32765276D02*
X38847500Y-33274724D01*
%TO.C,J3*%
X33010000Y-44390000D02*
X25330000Y-44390000D01*
X35610000Y-44390000D02*
X35610000Y-45720000D01*
X33010000Y-44390000D02*
X33010000Y-47050000D01*
X25330000Y-44390000D02*
X25330000Y-47050000D01*
X34280000Y-44390000D02*
X35610000Y-44390000D01*
X33010000Y-47050000D02*
X25330000Y-47050000D01*
%TO.C,C3*%
X33530000Y-17926267D02*
X33530000Y-17633733D01*
X32510000Y-17926267D02*
X32510000Y-17633733D01*
%TD*%
M02*
