%TF.GenerationSoftware,KiCad,Pcbnew,(6.0.4)*%
%TF.CreationDate,2023-01-02T17:26:25-06:00*%
%TF.ProjectId,FordOilPressure,466f7264-4f69-46c5-9072-657373757265,rev?*%
%TF.SameCoordinates,Original*%
%TF.FileFunction,Legend,Bot*%
%TF.FilePolarity,Positive*%
%FSLAX46Y46*%
G04 Gerber Fmt 4.6, Leading zero omitted, Abs format (unit mm)*
G04 Created by KiCad (PCBNEW (6.0.4)) date 2023-01-02 17:26:25*
%MOMM*%
%LPD*%
G01*
G04 APERTURE LIST*
%ADD10C,0.375000*%
G04 APERTURE END LIST*
D10*
X54403222Y-44743533D02*
X53688937Y-44743533D01*
X54546079Y-45172104D02*
X54046079Y-43672104D01*
X53546079Y-45172104D01*
X53046079Y-45172104D02*
X53046079Y-43672104D01*
X52546079Y-44743533D01*
X52046079Y-43672104D01*
X52046079Y-45172104D01*
X51331794Y-45172104D02*
X51331794Y-43672104D01*
X50760365Y-43672104D01*
X50617508Y-43743533D01*
X50546079Y-43814961D01*
X50474651Y-43957818D01*
X50474651Y-44172104D01*
X50546079Y-44314961D01*
X50617508Y-44386390D01*
X50760365Y-44457818D01*
X51331794Y-44457818D01*
X49831794Y-44386390D02*
X49331794Y-44386390D01*
X49117508Y-45172104D02*
X49831794Y-45172104D01*
X49831794Y-43672104D01*
X49117508Y-43672104D01*
X48474651Y-45172104D02*
X48474651Y-43672104D01*
X48117508Y-43672104D01*
X47903222Y-43743533D01*
X47760365Y-43886390D01*
X47688937Y-44029247D01*
X47617508Y-44314961D01*
X47617508Y-44529247D01*
X47688937Y-44814961D01*
X47760365Y-44957818D01*
X47903222Y-45100675D01*
X48117508Y-45172104D01*
X48474651Y-45172104D01*
X60331794Y-46087104D02*
X60046079Y-46087104D01*
X59903222Y-46158533D01*
X59760365Y-46301390D01*
X59688937Y-46587104D01*
X59688937Y-47087104D01*
X59760365Y-47372818D01*
X59903222Y-47515675D01*
X60046079Y-47587104D01*
X60331794Y-47587104D01*
X60474651Y-47515675D01*
X60617508Y-47372818D01*
X60688937Y-47087104D01*
X60688937Y-46587104D01*
X60617508Y-46301390D01*
X60474651Y-46158533D01*
X60331794Y-46087104D01*
X59046079Y-47587104D02*
X59046079Y-46587104D01*
X59046079Y-46087104D02*
X59117508Y-46158533D01*
X59046079Y-46229961D01*
X58974651Y-46158533D01*
X59046079Y-46087104D01*
X59046079Y-46229961D01*
X58117508Y-47587104D02*
X58260365Y-47515675D01*
X58331794Y-47372818D01*
X58331794Y-46087104D01*
X56403222Y-47587104D02*
X56403222Y-46087104D01*
X55831794Y-46087104D01*
X55688937Y-46158533D01*
X55617508Y-46229961D01*
X55546079Y-46372818D01*
X55546079Y-46587104D01*
X55617508Y-46729961D01*
X55688937Y-46801390D01*
X55831794Y-46872818D01*
X56403222Y-46872818D01*
X54903222Y-47587104D02*
X54903222Y-46587104D01*
X54903222Y-46872818D02*
X54831794Y-46729961D01*
X54760365Y-46658533D01*
X54617508Y-46587104D01*
X54474651Y-46587104D01*
X53403222Y-47515675D02*
X53546079Y-47587104D01*
X53831794Y-47587104D01*
X53974651Y-47515675D01*
X54046079Y-47372818D01*
X54046079Y-46801390D01*
X53974651Y-46658533D01*
X53831794Y-46587104D01*
X53546079Y-46587104D01*
X53403222Y-46658533D01*
X53331794Y-46801390D01*
X53331794Y-46944247D01*
X54046079Y-47087104D01*
X52760365Y-47515675D02*
X52617508Y-47587104D01*
X52331794Y-47587104D01*
X52188937Y-47515675D01*
X52117508Y-47372818D01*
X52117508Y-47301390D01*
X52188937Y-47158533D01*
X52331794Y-47087104D01*
X52546079Y-47087104D01*
X52688937Y-47015675D01*
X52760365Y-46872818D01*
X52760365Y-46801390D01*
X52688937Y-46658533D01*
X52546079Y-46587104D01*
X52331794Y-46587104D01*
X52188937Y-46658533D01*
X51546079Y-47515675D02*
X51403222Y-47587104D01*
X51117508Y-47587104D01*
X50974651Y-47515675D01*
X50903222Y-47372818D01*
X50903222Y-47301390D01*
X50974651Y-47158533D01*
X51117508Y-47087104D01*
X51331794Y-47087104D01*
X51474651Y-47015675D01*
X51546079Y-46872818D01*
X51546079Y-46801390D01*
X51474651Y-46658533D01*
X51331794Y-46587104D01*
X51117508Y-46587104D01*
X50974651Y-46658533D01*
X49617508Y-46587104D02*
X49617508Y-47587104D01*
X50260365Y-46587104D02*
X50260365Y-47372818D01*
X50188937Y-47515675D01*
X50046079Y-47587104D01*
X49831794Y-47587104D01*
X49688937Y-47515675D01*
X49617508Y-47444247D01*
X48903222Y-47587104D02*
X48903222Y-46587104D01*
X48903222Y-46872818D02*
X48831794Y-46729961D01*
X48760365Y-46658533D01*
X48617508Y-46587104D01*
X48474651Y-46587104D01*
X47403222Y-47515675D02*
X47546079Y-47587104D01*
X47831794Y-47587104D01*
X47974651Y-47515675D01*
X48046079Y-47372818D01*
X48046079Y-46801390D01*
X47974651Y-46658533D01*
X47831794Y-46587104D01*
X47546079Y-46587104D01*
X47403222Y-46658533D01*
X47331794Y-46801390D01*
X47331794Y-46944247D01*
X48046079Y-47087104D01*
X45760365Y-46087104D02*
X45260365Y-47587104D01*
X44760365Y-46087104D01*
X42331794Y-47587104D02*
X43188937Y-47587104D01*
X42760365Y-47587104D02*
X42760365Y-46087104D01*
X42903222Y-46301390D01*
X43046079Y-46444247D01*
X43188937Y-46515675D01*
X41688937Y-47444247D02*
X41617508Y-47515675D01*
X41688937Y-47587104D01*
X41760365Y-47515675D01*
X41688937Y-47444247D01*
X41688937Y-47587104D01*
X40688937Y-46087104D02*
X40546079Y-46087104D01*
X40403222Y-46158533D01*
X40331794Y-46229961D01*
X40260365Y-46372818D01*
X40188937Y-46658533D01*
X40188937Y-47015675D01*
X40260365Y-47301390D01*
X40331794Y-47444247D01*
X40403222Y-47515675D01*
X40546079Y-47587104D01*
X40688937Y-47587104D01*
X40831794Y-47515675D01*
X40903222Y-47444247D01*
X40974651Y-47301390D01*
X41046079Y-47015675D01*
X41046079Y-46658533D01*
X40974651Y-46372818D01*
X40903222Y-46229961D01*
X40831794Y-46158533D01*
X40688937Y-46087104D01*
X57046079Y-50002104D02*
X57046079Y-49216390D01*
X57117508Y-49073533D01*
X57260365Y-49002104D01*
X57546079Y-49002104D01*
X57688937Y-49073533D01*
X57046079Y-49930675D02*
X57188937Y-50002104D01*
X57546079Y-50002104D01*
X57688937Y-49930675D01*
X57760365Y-49787818D01*
X57760365Y-49644961D01*
X57688937Y-49502104D01*
X57546079Y-49430675D01*
X57188937Y-49430675D01*
X57046079Y-49359247D01*
X56117508Y-50002104D02*
X56260365Y-49930675D01*
X56331794Y-49787818D01*
X56331794Y-48502104D01*
X55617508Y-49930675D02*
X55474651Y-50002104D01*
X55188937Y-50002104D01*
X55046079Y-49930675D01*
X54974651Y-49787818D01*
X54974651Y-49716390D01*
X55046079Y-49573533D01*
X55188937Y-49502104D01*
X55403222Y-49502104D01*
X55546079Y-49430675D01*
X55617508Y-49287818D01*
X55617508Y-49216390D01*
X55546079Y-49073533D01*
X55403222Y-49002104D01*
X55188937Y-49002104D01*
X55046079Y-49073533D01*
X54331794Y-50002104D02*
X54331794Y-48502104D01*
X53688937Y-50002104D02*
X53688937Y-49216390D01*
X53760365Y-49073533D01*
X53903222Y-49002104D01*
X54117508Y-49002104D01*
X54260365Y-49073533D01*
X54331794Y-49144961D01*
X52760365Y-50002104D02*
X52903222Y-49930675D01*
X52974651Y-49859247D01*
X53046079Y-49716390D01*
X53046079Y-49287818D01*
X52974651Y-49144961D01*
X52903222Y-49073533D01*
X52760365Y-49002104D01*
X52546079Y-49002104D01*
X52403222Y-49073533D01*
X52331794Y-49144961D01*
X52260365Y-49287818D01*
X52260365Y-49716390D01*
X52331794Y-49859247D01*
X52403222Y-49930675D01*
X52546079Y-50002104D01*
X52760365Y-50002104D01*
X51760365Y-49002104D02*
X51474651Y-50002104D01*
X51188937Y-49287818D01*
X50903222Y-50002104D01*
X50617508Y-49002104D01*
X50260365Y-49002104D02*
X49688937Y-49002104D01*
X50046079Y-48502104D02*
X50046079Y-49787818D01*
X49974651Y-49930675D01*
X49831794Y-50002104D01*
X49688937Y-50002104D01*
X48974651Y-50002104D02*
X49117508Y-49930675D01*
X49188937Y-49859247D01*
X49260365Y-49716390D01*
X49260365Y-49287818D01*
X49188937Y-49144961D01*
X49117508Y-49073533D01*
X48974651Y-49002104D01*
X48760365Y-49002104D01*
X48617508Y-49073533D01*
X48546079Y-49144961D01*
X48474651Y-49287818D01*
X48474651Y-49716390D01*
X48546079Y-49859247D01*
X48617508Y-49930675D01*
X48760365Y-50002104D01*
X48974651Y-50002104D01*
X47831794Y-49859247D02*
X47760365Y-49930675D01*
X47831794Y-50002104D01*
X47903222Y-49930675D01*
X47831794Y-49859247D01*
X47831794Y-50002104D01*
X46474651Y-49930675D02*
X46617508Y-50002104D01*
X46903222Y-50002104D01*
X47046079Y-49930675D01*
X47117508Y-49859247D01*
X47188937Y-49716390D01*
X47188937Y-49287818D01*
X47117508Y-49144961D01*
X47046079Y-49073533D01*
X46903222Y-49002104D01*
X46617508Y-49002104D01*
X46474651Y-49073533D01*
X45617508Y-50002104D02*
X45760365Y-49930675D01*
X45831794Y-49859247D01*
X45903222Y-49716390D01*
X45903222Y-49287818D01*
X45831794Y-49144961D01*
X45760365Y-49073533D01*
X45617508Y-49002104D01*
X45403222Y-49002104D01*
X45260365Y-49073533D01*
X45188937Y-49144961D01*
X45117508Y-49287818D01*
X45117508Y-49716390D01*
X45188937Y-49859247D01*
X45260365Y-49930675D01*
X45403222Y-50002104D01*
X45617508Y-50002104D01*
X44474651Y-50002104D02*
X44474651Y-49002104D01*
X44474651Y-49144961D02*
X44403222Y-49073533D01*
X44260365Y-49002104D01*
X44046079Y-49002104D01*
X43903222Y-49073533D01*
X43831794Y-49216390D01*
X43831794Y-50002104D01*
X43831794Y-49216390D02*
X43760365Y-49073533D01*
X43617508Y-49002104D01*
X43403222Y-49002104D01*
X43260365Y-49073533D01*
X43188937Y-49216390D01*
X43188937Y-50002104D01*
M02*
