%TF.GenerationSoftware,KiCad,Pcbnew,(6.0.4)*%
%TF.CreationDate,2023-01-02T17:26:25-06:00*%
%TF.ProjectId,FordOilPressure,466f7264-4f69-46c5-9072-657373757265,rev?*%
%TF.SameCoordinates,Original*%
%TF.FileFunction,Copper,L1,Top*%
%TF.FilePolarity,Positive*%
%FSLAX46Y46*%
G04 Gerber Fmt 4.6, Leading zero omitted, Abs format (unit mm)*
G04 Created by KiCad (PCBNEW (6.0.4)) date 2023-01-02 17:26:25*
%MOMM*%
%LPD*%
G01*
G04 APERTURE LIST*
G04 Aperture macros list*
%AMRoundRect*
0 Rectangle with rounded corners*
0 $1 Rounding radius*
0 $2 $3 $4 $5 $6 $7 $8 $9 X,Y pos of 4 corners*
0 Add a 4 corners polygon primitive as box body*
4,1,4,$2,$3,$4,$5,$6,$7,$8,$9,$2,$3,0*
0 Add four circle primitives for the rounded corners*
1,1,$1+$1,$2,$3*
1,1,$1+$1,$4,$5*
1,1,$1+$1,$6,$7*
1,1,$1+$1,$8,$9*
0 Add four rect primitives between the rounded corners*
20,1,$1+$1,$2,$3,$4,$5,0*
20,1,$1+$1,$4,$5,$6,$7,0*
20,1,$1+$1,$6,$7,$8,$9,0*
20,1,$1+$1,$8,$9,$2,$3,0*%
G04 Aperture macros list end*
%TA.AperFunction,SMDPad,CuDef*%
%ADD10R,4.600000X1.100000*%
%TD*%
%TA.AperFunction,SMDPad,CuDef*%
%ADD11R,9.400000X10.800000*%
%TD*%
%TA.AperFunction,SMDPad,CuDef*%
%ADD12RoundRect,0.237500X-0.237500X0.250000X-0.237500X-0.250000X0.237500X-0.250000X0.237500X0.250000X0*%
%TD*%
%TA.AperFunction,SMDPad,CuDef*%
%ADD13R,1.200000X0.900000*%
%TD*%
%TA.AperFunction,SMDPad,CuDef*%
%ADD14RoundRect,0.237500X-0.237500X0.300000X-0.237500X-0.300000X0.237500X-0.300000X0.237500X0.300000X0*%
%TD*%
%TA.AperFunction,SMDPad,CuDef*%
%ADD15R,1.700000X0.650000*%
%TD*%
%TA.AperFunction,ComponentPad*%
%ADD16R,1.700000X1.700000*%
%TD*%
%TA.AperFunction,ComponentPad*%
%ADD17O,1.700000X1.700000*%
%TD*%
%TA.AperFunction,SMDPad,CuDef*%
%ADD18R,1.100000X1.100000*%
%TD*%
%TA.AperFunction,SMDPad,CuDef*%
%ADD19RoundRect,0.237500X-0.300000X-0.237500X0.300000X-0.237500X0.300000X0.237500X-0.300000X0.237500X0*%
%TD*%
%TA.AperFunction,SMDPad,CuDef*%
%ADD20RoundRect,0.237500X0.237500X-0.250000X0.237500X0.250000X-0.237500X0.250000X-0.237500X-0.250000X0*%
%TD*%
%TA.AperFunction,SMDPad,CuDef*%
%ADD21RoundRect,0.237500X0.237500X-0.300000X0.237500X0.300000X-0.237500X0.300000X-0.237500X-0.300000X0*%
%TD*%
%TA.AperFunction,ViaPad*%
%ADD22C,0.800000*%
%TD*%
%TA.AperFunction,Conductor*%
%ADD23C,1.000000*%
%TD*%
%TA.AperFunction,Conductor*%
%ADD24C,0.500000*%
%TD*%
%TA.AperFunction,Conductor*%
%ADD25C,0.250000*%
%TD*%
G04 APERTURE END LIST*
D10*
%TO.P,Q1,1,G*%
%TO.N,Net-(R1-Pad1)*%
X43245701Y-32107932D03*
D11*
%TO.P,Q1,2,D*%
%TO.N,Net-(J1-Pad6)*%
X52395701Y-34647932D03*
D10*
%TO.P,Q1,3,S*%
%TO.N,GND*%
X43245701Y-37187932D03*
%TD*%
D12*
%TO.P,R3,1*%
%TO.N,Net-(J1-Pad3)*%
X25400000Y-28297500D03*
%TO.P,R3,2*%
%TO.N,Net-(U1-Pad3)*%
X25400000Y-30122500D03*
%TD*%
D13*
%TO.P,D2,1,K*%
%TO.N,Net-(U1-Pad3)*%
X21590000Y-39750000D03*
%TO.P,D2,2,A*%
%TO.N,GND*%
X21590000Y-36450000D03*
%TD*%
D14*
%TO.P,C1,1*%
%TO.N,Net-(D1-Pad1)*%
X29822425Y-15379603D03*
%TO.P,C1,2*%
%TO.N,GND*%
X29822425Y-17104603D03*
%TD*%
D10*
%TO.P,U2,1,GND*%
%TO.N,GND*%
X40265000Y-15475000D03*
D11*
%TO.P,U2,2,VO*%
%TO.N,Net-(C2-Pad1)*%
X49415000Y-18015000D03*
D10*
X40265000Y-18015000D03*
%TO.P,U2,3,VI*%
%TO.N,Net-(D1-Pad1)*%
X40265000Y-20555000D03*
%TD*%
D15*
%TO.P,U1,1,~{RESET}/PB5*%
%TO.N,Net-(J2-Pad5)*%
X25560000Y-33655000D03*
%TO.P,U1,2,XTAL1/PB3*%
%TO.N,unconnected-(U1-Pad2)*%
X25560000Y-34925000D03*
%TO.P,U1,3,XTAL2/PB4*%
%TO.N,Net-(U1-Pad3)*%
X25560000Y-36195000D03*
%TO.P,U1,4,GND*%
%TO.N,GND*%
X25560000Y-37465000D03*
%TO.P,U1,5,AREF/PB0*%
%TO.N,Net-(J3-Pad4)*%
X32860000Y-37465000D03*
%TO.P,U1,6,PB1*%
%TO.N,Net-(R2-Pad1)*%
X32860000Y-36195000D03*
%TO.P,U1,7,PB2*%
%TO.N,Net-(J3-Pad3)*%
X32860000Y-34925000D03*
%TO.P,U1,8,VCC*%
%TO.N,Net-(C2-Pad1)*%
X32860000Y-33655000D03*
%TD*%
D16*
%TO.P,J2,1,Pin_1*%
%TO.N,Net-(R2-Pad1)*%
X17775000Y-27955000D03*
D17*
%TO.P,J2,2,Pin_2*%
%TO.N,Net-(C2-Pad1)*%
X20315000Y-27955000D03*
%TO.P,J2,3,Pin_3*%
%TO.N,Net-(J3-Pad3)*%
X17775000Y-30495000D03*
%TO.P,J2,4,Pin_4*%
%TO.N,Net-(J3-Pad4)*%
X20315000Y-30495000D03*
%TO.P,J2,5,Pin_5*%
%TO.N,Net-(J2-Pad5)*%
X17775000Y-33035000D03*
%TO.P,J2,6,Pin_6*%
%TO.N,GND*%
X20315000Y-33035000D03*
%TD*%
D16*
%TO.P,J1,1,Pin_1*%
%TO.N,Net-(D1-Pad2)*%
X17775000Y-15255000D03*
D17*
%TO.P,J1,2,Pin_2*%
%TO.N,GND*%
X20315000Y-15255000D03*
%TO.P,J1,3,Pin_3*%
%TO.N,Net-(J1-Pad3)*%
X17775000Y-17795000D03*
%TO.P,J1,4,Pin_4*%
%TO.N,Net-(C2-Pad1)*%
X20315000Y-17795000D03*
%TO.P,J1,5,Pin_5*%
%TO.N,GND*%
X17775000Y-20335000D03*
%TO.P,J1,6,Pin_6*%
%TO.N,Net-(J1-Pad6)*%
X20315000Y-20335000D03*
%TD*%
D18*
%TO.P,D1,2,A*%
%TO.N,Net-(D1-Pad2)*%
X23403638Y-15239999D03*
%TO.P,D1,1,K*%
%TO.N,Net-(D1-Pad1)*%
X26203638Y-15239999D03*
%TD*%
D19*
%TO.P,C2,1*%
%TO.N,Net-(C2-Pad1)*%
X35196968Y-33685044D03*
%TO.P,C2,2*%
%TO.N,GND*%
X36921968Y-33685044D03*
%TD*%
D20*
%TO.P,R2,2*%
%TO.N,Net-(R1-Pad1)*%
X34290000Y-27940000D03*
%TO.P,R2,1*%
%TO.N,Net-(R2-Pad1)*%
X34290000Y-29765000D03*
%TD*%
D12*
%TO.P,R1,1*%
%TO.N,Net-(R1-Pad1)*%
X39370000Y-32107500D03*
%TO.P,R1,2*%
%TO.N,GND*%
X39370000Y-33932500D03*
%TD*%
D17*
%TO.P,J3,4,Pin_4*%
%TO.N,Net-(J3-Pad4)*%
X26660000Y-45720000D03*
%TO.P,J3,3,Pin_3*%
%TO.N,Net-(J3-Pad3)*%
X29200000Y-45720000D03*
%TO.P,J3,2,Pin_2*%
%TO.N,Net-(C2-Pad1)*%
X31740000Y-45720000D03*
D16*
%TO.P,J3,1,Pin_1*%
%TO.N,GND*%
X34280000Y-45720000D03*
%TD*%
D21*
%TO.P,C3,2*%
%TO.N,GND*%
X33020000Y-16917500D03*
%TO.P,C3,1*%
%TO.N,Net-(C2-Pad1)*%
X33020000Y-18642500D03*
%TD*%
D22*
%TO.N,GND*%
X14540481Y-22289519D03*
X41910000Y-35560000D03*
%TD*%
D23*
%TO.N,GND*%
X42916420Y-37187932D02*
X41167994Y-35439506D01*
X43245701Y-37187932D02*
X42916420Y-37187932D01*
D24*
X22840000Y-35560000D02*
X22850000Y-35570000D01*
X22850000Y-35570000D02*
X24745000Y-37465000D01*
X20315000Y-33035000D02*
X22850000Y-35570000D01*
X21590000Y-35560000D02*
X22840000Y-35560000D01*
X21590000Y-35560000D02*
X21590000Y-34310000D01*
X21590000Y-36450000D02*
X21590000Y-35560000D01*
X36490000Y-13630000D02*
X37420000Y-12700000D01*
X38100000Y-12700000D02*
X40640000Y-12700000D01*
X35560000Y-12700000D02*
X38100000Y-12700000D01*
X37420000Y-12700000D02*
X38100000Y-12700000D01*
X24403149Y-13696851D02*
X23406298Y-12700000D01*
X23406298Y-12700000D02*
X22860000Y-12700000D01*
X22860000Y-12700000D02*
X25400000Y-12700000D01*
X15240000Y-12700000D02*
X22860000Y-12700000D01*
X24403149Y-16040978D02*
X24403149Y-13696851D01*
X21299510Y-16239510D02*
X24204617Y-16239510D01*
X24204617Y-16239510D02*
X24403149Y-16040978D01*
X24403149Y-13696851D02*
X25400000Y-12700000D01*
X20315000Y-15255000D02*
X21299510Y-16239510D01*
%TO.N,Net-(C2-Pad1)*%
X40640000Y-43180000D02*
X38100000Y-43180000D01*
X41910000Y-41910000D02*
X40640000Y-43180000D01*
%TO.N,GND*%
X32954018Y-16851518D02*
X33020000Y-16917500D01*
X30066093Y-16851518D02*
X32954018Y-16851518D01*
X29677612Y-17239999D02*
X30066093Y-16851518D01*
%TO.N,Net-(D1-Pad1)*%
X33255000Y-20555000D02*
X40265000Y-20555000D01*
X32085480Y-19385480D02*
X33255000Y-20555000D01*
X28275480Y-19385480D02*
X32085480Y-19385480D01*
X27940001Y-15239999D02*
X27940001Y-19050001D01*
X27940001Y-19050001D02*
X28275480Y-19385480D01*
%TO.N,GND*%
X15820481Y-22289519D02*
X17775000Y-20335000D01*
X14540481Y-22289519D02*
X15820481Y-22289519D01*
D25*
%TO.N,Net-(U1-Pad3)*%
X27940000Y-39072255D02*
X27262255Y-39750000D01*
X27940000Y-34340000D02*
X27940000Y-39072255D01*
X21590000Y-39750000D02*
X27262255Y-39750000D01*
D23*
%TO.N,Net-(J1-Pad6)*%
X39370000Y-29210000D02*
X46957769Y-29210000D01*
X46957769Y-29210000D02*
X52395701Y-34647932D01*
X30495000Y-20335000D02*
X39370000Y-29210000D01*
X20315000Y-20335000D02*
X30495000Y-20335000D01*
D24*
X49284723Y-32774723D02*
X49284723Y-34647932D01*
D25*
%TO.N,Net-(J3-Pad3)*%
X15240000Y-36830000D02*
X25304511Y-46894511D01*
X25304511Y-46894511D02*
X28025489Y-46894511D01*
X15240000Y-30480000D02*
X15240000Y-36830000D01*
X28025489Y-46894511D02*
X29200000Y-45720000D01*
X15255000Y-30495000D02*
X15240000Y-30480000D01*
X17775000Y-30495000D02*
X15255000Y-30495000D01*
%TO.N,Net-(J3-Pad4)*%
X25457919Y-45720000D02*
X26660000Y-45720000D01*
X16510000Y-36772081D02*
X25457919Y-45720000D01*
X16510000Y-32199520D02*
X16510000Y-36772081D01*
X19436010Y-30495000D02*
X18070521Y-31860489D01*
X18070521Y-31860489D02*
X16849031Y-31860489D01*
X16849031Y-31860489D02*
X16510000Y-32199520D01*
X20315000Y-30495000D02*
X19436010Y-30495000D01*
%TO.N,Net-(J1-Pad3)*%
X19040000Y-21937500D02*
X19040000Y-19060000D01*
X25400000Y-28297500D02*
X19040000Y-21937500D01*
%TO.N,GND*%
X21590000Y-34310000D02*
X20315000Y-33035000D01*
%TO.N,Net-(R1-Pad1)*%
X34290000Y-27940000D02*
X38457500Y-32107500D01*
X38457500Y-32107500D02*
X39370000Y-32107500D01*
X39370432Y-32107932D02*
X39370000Y-32107500D01*
X43245701Y-32107932D02*
X39370432Y-32107932D01*
%TO.N,GND*%
X39122544Y-33685044D02*
X39370000Y-33932500D01*
D24*
X36921968Y-33685044D02*
X39122544Y-33685044D01*
%TO.N,Net-(C2-Pad1)*%
X35196968Y-35196968D02*
X39370000Y-39370000D01*
X35196968Y-33685044D02*
X35196968Y-35196968D01*
D25*
X35166924Y-33655000D02*
X35196968Y-33685044D01*
D24*
X32860000Y-33655000D02*
X35166924Y-33655000D01*
D25*
%TO.N,Net-(J3-Pad3)*%
X34034511Y-35304511D02*
X34034511Y-40885489D01*
X34034511Y-40885489D02*
X29200000Y-45720000D01*
X33655000Y-34925000D02*
X34034511Y-35304511D01*
X32860000Y-34925000D02*
X33655000Y-34925000D01*
%TO.N,Net-(J2-Pad5)*%
X23765489Y-31860489D02*
X25560000Y-33655000D01*
X18949511Y-31860489D02*
X23765489Y-31860489D01*
X17775000Y-33035000D02*
X18949511Y-31860489D01*
%TO.N,Net-(J3-Pad4)*%
X32860000Y-39520000D02*
X26660000Y-45720000D01*
X32860000Y-37465000D02*
X32860000Y-39520000D01*
%TO.N,Net-(R2-Pad1)*%
X31115000Y-36195000D02*
X32860000Y-36195000D01*
X30480000Y-35560000D02*
X31115000Y-36195000D01*
X34290000Y-29765000D02*
X30480000Y-33575000D01*
X30480000Y-33575000D02*
X30480000Y-35560000D01*
X33654511Y-29129511D02*
X34290000Y-29765000D01*
X18949511Y-29129511D02*
X33654511Y-29129511D01*
X17775000Y-27955000D02*
X18949511Y-29129511D01*
%TO.N,Net-(U1-Pad3)*%
X27582500Y-30122500D02*
X25400000Y-30122500D01*
X27940000Y-30480000D02*
X27582500Y-30122500D01*
X27940000Y-34340000D02*
X27940000Y-30480000D01*
X26085000Y-36195000D02*
X27940000Y-34340000D01*
X25560000Y-36195000D02*
X26085000Y-36195000D01*
%TO.N,GND*%
X24745000Y-37465000D02*
X25560000Y-37465000D01*
X40877006Y-35439506D02*
X41167994Y-35439506D01*
D24*
X39370000Y-33932500D02*
X40877006Y-35439506D01*
D25*
%TO.N,Net-(J1-Pad3)*%
X17775000Y-17795000D02*
X19050000Y-19070000D01*
D23*
%TO.N,Net-(C2-Pad1)*%
X58420000Y-27020000D02*
X49415000Y-18015000D01*
X41910000Y-41910000D02*
X58420000Y-41910000D01*
D24*
X39370000Y-39370000D02*
X41910000Y-41910000D01*
D23*
X58420000Y-41910000D02*
X58420000Y-27020000D01*
%TO.N,GND*%
X41945461Y-35439506D02*
X41167994Y-35439506D01*
D24*
X41910000Y-35474967D02*
X41945461Y-35439506D01*
X41910000Y-35560000D02*
X41910000Y-35474967D01*
D23*
X41945461Y-35887692D02*
X43245701Y-37187932D01*
X41945461Y-35439506D02*
X41945461Y-35887692D01*
D25*
%TO.N,Net-(J1-Pad6)*%
X49284723Y-34647932D02*
X52395701Y-34647932D01*
D24*
%TO.N,Net-(D1-Pad1)*%
X27940001Y-15239999D02*
X29677612Y-15239999D01*
%TO.N,Net-(C2-Pad1)*%
X35795000Y-18015000D02*
X40265000Y-18015000D01*
X35325000Y-18015000D02*
X35795000Y-18015000D01*
X34697500Y-18642500D02*
X35325000Y-18015000D01*
X33020000Y-18642500D02*
X34697500Y-18642500D01*
X37725000Y-18015000D02*
X46875000Y-18015000D01*
%TO.N,GND*%
X25400000Y-12700000D02*
X35560000Y-12700000D01*
%TO.N,Net-(C2-Pad1)*%
X39360000Y-39380000D02*
X39190000Y-39210000D01*
%TO.N,GND*%
X13970000Y-12700000D02*
X15240000Y-12700000D01*
X15240000Y-48260000D02*
X12700000Y-45720000D01*
X12700000Y-13970000D02*
X13970000Y-12700000D01*
X33020000Y-48260000D02*
X15240000Y-48260000D01*
X34300000Y-46980000D02*
X33020000Y-48260000D01*
X34300000Y-45720000D02*
X34300000Y-46980000D01*
X12700000Y-45720000D02*
X12700000Y-13970000D01*
%TO.N,Net-(C2-Pad1)*%
X29934463Y-47525537D02*
X31740000Y-45720000D01*
X22125537Y-47525537D02*
X29934463Y-47525537D01*
X14575933Y-27334067D02*
X14575933Y-39975933D01*
X14575933Y-39975933D02*
X22125537Y-47525537D01*
X15254511Y-26655489D02*
X14575933Y-27334067D01*
X19015489Y-26655489D02*
X15254511Y-26655489D01*
X20315000Y-27955000D02*
X19015489Y-26655489D01*
%TO.N,Net-(D1-Pad2)*%
X21438159Y-13274520D02*
X23403638Y-15239999D01*
X17780000Y-13274520D02*
X21438159Y-13274520D01*
D25*
X17775000Y-13279520D02*
X17780000Y-13274520D01*
D24*
X17775000Y-15255000D02*
X17775000Y-13279520D01*
%TO.N,GND*%
X40640000Y-12700000D02*
X40640000Y-15240000D01*
X36490000Y-15240000D02*
X40640000Y-15240000D01*
X36490000Y-13630000D02*
X36490000Y-15240000D01*
X35560000Y-12700000D02*
X36490000Y-13630000D01*
%TO.N,Net-(D1-Pad1)*%
X26203638Y-15239999D02*
X27940001Y-15239999D01*
%TO.N,Net-(C2-Pad1)*%
X33020000Y-43180000D02*
X38100000Y-43180000D01*
D25*
X31760000Y-44460000D02*
X31750000Y-44450000D01*
D24*
X31760000Y-45720000D02*
X31760000Y-44460000D01*
X31750000Y-44450000D02*
X33020000Y-43180000D01*
D25*
%TO.N,GND*%
X33020000Y-16917500D02*
X32697500Y-17240000D01*
D24*
X34697500Y-15240000D02*
X36490000Y-15240000D01*
X33020000Y-16917500D02*
X34697500Y-15240000D01*
%TD*%
M02*
