%TF.GenerationSoftware,KiCad,Pcbnew,(6.0.4)*%
%TF.CreationDate,2023-01-02T17:26:25-06:00*%
%TF.ProjectId,FordOilPressure,466f7264-4f69-46c5-9072-657373757265,rev?*%
%TF.SameCoordinates,Original*%
%TF.FileFunction,Copper,L2,Bot*%
%TF.FilePolarity,Positive*%
%FSLAX46Y46*%
G04 Gerber Fmt 4.6, Leading zero omitted, Abs format (unit mm)*
G04 Created by KiCad (PCBNEW (6.0.4)) date 2023-01-02 17:26:25*
%MOMM*%
%LPD*%
G01*
G04 APERTURE LIST*
%TA.AperFunction,ComponentPad*%
%ADD10R,1.700000X1.700000*%
%TD*%
%TA.AperFunction,ComponentPad*%
%ADD11O,1.700000X1.700000*%
%TD*%
%TA.AperFunction,ViaPad*%
%ADD12C,0.800000*%
%TD*%
%TA.AperFunction,Conductor*%
%ADD13C,0.500000*%
%TD*%
%TA.AperFunction,Conductor*%
%ADD14C,0.250000*%
%TD*%
%TA.AperFunction,Conductor*%
%ADD15C,1.000000*%
%TD*%
G04 APERTURE END LIST*
D10*
%TO.P,J2,1,Pin_1*%
%TO.N,Net-(R2-Pad1)*%
X17775000Y-27955000D03*
D11*
%TO.P,J2,2,Pin_2*%
%TO.N,Net-(C2-Pad1)*%
X20315000Y-27955000D03*
%TO.P,J2,3,Pin_3*%
%TO.N,Net-(J3-Pad3)*%
X17775000Y-30495000D03*
%TO.P,J2,4,Pin_4*%
%TO.N,Net-(J3-Pad4)*%
X20315000Y-30495000D03*
%TO.P,J2,5,Pin_5*%
%TO.N,Net-(J2-Pad5)*%
X17775000Y-33035000D03*
%TO.P,J2,6,Pin_6*%
%TO.N,GND*%
X20315000Y-33035000D03*
%TD*%
D10*
%TO.P,J1,1,Pin_1*%
%TO.N,Net-(D1-Pad2)*%
X17775000Y-15255000D03*
D11*
%TO.P,J1,2,Pin_2*%
%TO.N,GND*%
X20315000Y-15255000D03*
%TO.P,J1,3,Pin_3*%
%TO.N,Net-(J1-Pad3)*%
X17775000Y-17795000D03*
%TO.P,J1,4,Pin_4*%
%TO.N,Net-(C2-Pad1)*%
X20315000Y-17795000D03*
%TO.P,J1,5,Pin_5*%
%TO.N,GND*%
X17775000Y-20335000D03*
%TO.P,J1,6,Pin_6*%
%TO.N,Net-(J1-Pad6)*%
X20315000Y-20335000D03*
%TD*%
%TO.P,J3,4,Pin_4*%
%TO.N,Net-(J3-Pad4)*%
X26660000Y-45720000D03*
%TO.P,J3,3,Pin_3*%
%TO.N,Net-(J3-Pad3)*%
X29200000Y-45720000D03*
%TO.P,J3,2,Pin_2*%
%TO.N,Net-(C2-Pad1)*%
X31740000Y-45720000D03*
D10*
%TO.P,J3,1,Pin_1*%
%TO.N,GND*%
X34280000Y-45720000D03*
%TD*%
D12*
%TO.N,GND*%
X14540481Y-22289519D03*
X41910000Y-35560000D03*
%TD*%
D13*
%TO.N,Net-(C2-Pad1)*%
X31750000Y-45720000D02*
X31740000Y-45720000D01*
X35560000Y-41910000D02*
X31750000Y-45720000D01*
X35560000Y-33020000D02*
X35560000Y-41910000D01*
X23454519Y-20914519D02*
X35560000Y-33020000D01*
D14*
X23434519Y-20914519D02*
X23454519Y-20914519D01*
D13*
X20315000Y-17795000D02*
X23434519Y-20914519D01*
%TO.N,GND*%
X20315000Y-12986845D02*
X20310198Y-12982043D01*
X20315000Y-15255000D02*
X20315000Y-12986845D01*
D14*
X20315000Y-12695000D02*
X20269719Y-12649719D01*
D13*
X22860000Y-26670000D02*
X21590000Y-25400000D01*
X21590000Y-25400000D02*
X15240000Y-25400000D01*
X22860000Y-31750000D02*
X22860000Y-26670000D01*
X20315000Y-33035000D02*
X21575000Y-33035000D01*
X21575000Y-33035000D02*
X22860000Y-31750000D01*
D15*
X40960480Y-13020480D02*
X41910000Y-13970000D01*
X15554520Y-13020480D02*
X40960480Y-13020480D01*
X41910000Y-13970000D02*
X41910000Y-35560000D01*
X14540481Y-14034519D02*
X15554520Y-13020480D01*
X14540481Y-22289519D02*
X14540481Y-14034519D01*
X41910000Y-43180000D02*
X36840000Y-48250000D01*
X36840000Y-48250000D02*
X34300000Y-48250000D01*
X41910000Y-35560000D02*
X41910000Y-43180000D01*
X15110962Y-25400000D02*
X14540481Y-24829519D01*
X14540481Y-24829519D02*
X14540481Y-22289519D01*
X14540481Y-26099519D02*
X14540481Y-24829519D01*
D14*
X41711025Y-30281025D02*
X41910000Y-30480000D01*
D15*
X15240000Y-25400000D02*
X14540481Y-26099519D01*
X14540481Y-47560481D02*
X14540481Y-26099519D01*
X15240000Y-48260000D02*
X14540481Y-47560481D01*
X34290000Y-48260000D02*
X15240000Y-48260000D01*
D13*
X34300000Y-48250000D02*
X34290000Y-48260000D01*
D15*
X34300000Y-45720000D02*
X34300000Y-48250000D01*
%TD*%
M02*
